<?xml version="1.0" encoding="utf-8"?>
<!-- Generator: Adobe Illustrator 21.1.0, SVG Export Plug-In . SVG Version: 6.00 Build 0)  -->
<svg version="1.1" id="Layer_1" xmlns="http://www.w3.org/2000/svg" xmlns:xlink="http://www.w3.org/1999/xlink" x="0px" y="0px"
	 width="193.3px" height="91px" viewBox="0 0 193.3 91" style="enable-background:new 0 0 193.3 91;" xml:space="preserve">
<style type="text/css">
	.st0{fill:none;stroke:#010101;stroke-miterlimit:10;}
</style>
<path class="st0" d="M44.1,32.3c0,0,9-7,10-16s-3.7-11.2-9-10c-18,4-29.4,23.7-34,38c-8,25,16,40,24,39s18-10,22-15s27-46,27-48
	s-4-1-9,13s-9,30-8,34s5,3,8-4s13-26,16-26s-4,20-3,29s-1,10,4,10s19-32,23-33s-4,8-7,18c-1.7,5.7-1,16,6,16s14-8,16-17s6-23-5-25
	s-19,15,10,7s11.4-9.3,9,10c-1,8-3,20,2,24c3.1,2.5,11-12,17-23s10-20,5-18s-12,41-1,41s20-28,19-38s-1-13-1-13"/>
</svg>
