<svg xmlns="http://www.w3.org/2000/svg" viewBox="0 0 407.06 286.4"><defs><style>.a{fill:#adc5cc;}.b{fill:#495769;}.c{fill:none;stroke:#a4bcbc;stroke-miterlimit:10;stroke-width:4px;}</style></defs><title>Artboard 1</title><path class="a" d="M203.77,233.3a12.41,12.41,0,0,1-12-8.85c-12.81-41-27.14-62.51-43.74-87.46l-3.76-5.66c-9.52-14.39-22.54-42.79-21.67-60.87,1-21.13,9.49-38.85,24.5-51.25C161.5,7.3,180.94,1,203.31,1c25.22,0,48.3,8.9,63.32,24.41a60.71,60.71,0,0,1,17.42,45.13c-.87,26.82-15.44,50.29-21.66,60.31-1.79,2.88-3.55,5.68-5.28,8.45-15.13,24.12-28.2,45-41.39,85.32a12.39,12.39,0,0,1-11.95,8.68Z"/><path class="b" d="M203.31,2c44,0,81.07,27.4,79.74,68.51-.84,25.92-14.46,48.45-21.51,59.81-17.24,27.79-32,48.84-46.77,94a11.59,11.59,0,0,1-22.08-.16C178.87,180,163.12,158,145.08,130.78c-10.21-15.43-22.34-43.16-21.51-60.27C125.67,27.12,159.27,2,203.31,2m0-2C180.71,0,161,6.38,146.44,18.44,131.21,31,122.61,49,121.57,70.41c-.88,18.31,12.24,47,21.84,61.47,1.26,1.91,2.52,3.79,3.76,5.66,16.55,24.89,30.85,46.38,43.62,87.2a13.58,13.58,0,0,0,25.88.19c13.15-40.24,26.19-61,41.29-85.1,1.73-2.77,3.49-5.57,5.28-8.45,6.26-10.09,20.93-33.72,21.81-60.81a61.71,61.71,0,0,0-17.7-45.86C252.14,9,228.8,0,203.31,0Z"/><ellipse class="b" cx="203.31" cy="72.79" rx="57.09" ry="52.94"/><ellipse class="c" cx="203.31" cy="72.79" rx="41.1" ry="38.12"/><path class="c" d="M216.16,45.39c5.42,0,11.45,4.46,13,9.63"/><path class="b" d="M170.08,254.54q-36.39-15.36-72.74-30.76a5.25,5.25,0,0,0-5.81.58c-7.77,5.36-16.2,5.77-24.76,2.19C45.87,217.83,25,209,4.16,200.14c-3.47-1.47-4.93-4.37-3.77-7.26s4.39-4.07,8-2.56Q36.72,202.26,65,214.24c1.64.7,3.47,1.66,4.72-.09a8.21,8.21,0,0,0,1.58-4.91c-.07-1.07-1.6-2.48-2.8-3-18.19-7.8-36.44-15.47-54.68-23.17-.94-.39-1.89-.77-2.81-1.2-2.85-1.36-4.07-4-3.14-6.78a5.45,5.45,0,0,1,6.75-3.24A21.47,21.47,0,0,1,17.5,173l55.28,23.34c3.06,1.29,4.94.69,6-1.88,1.14-2.81.18-5.1-2.71-6.32q-28.2-11.91-56.4-23.8c-2.21-.92-4-2.12-4.38-4.63a5.11,5.11,0,0,1,6.22-5.83,21.05,21.05,0,0,1,3.74,1.32c19.65,8.28,39.26,16.67,59,24.84,9.9,4.1,16.41,10.73,18,21.66a4.28,4.28,0,0,0,1.7,2.23,10.93,10.93,0,0,0,2.5,1.12l144.38,61c6.66,2.82,9.07,8.82,6,14.87A10.25,10.25,0,0,1,244.84,286a38.76,38.76,0,0,1-3.7-1.44Q205.61,269.56,170.08,254.54Z"/><path class="b" d="M276.56,211.46q53.26-27,106.55-53.91A47.79,47.79,0,0,1,393.75,154a7.41,7.41,0,0,1,8,3.37,57.72,57.72,0,0,1,4.59,7.91c1.55,3.22.44,6.23-1.54,8.87-4.15,5.53-10.05,8.84-15.85,12.26q-28.74,16.92-57.47,33.85c-8.09,4.76-16.16,9.55-24.3,14.21a16.34,16.34,0,0,1-19.36-2c-2.07-1.9-3.48-1.56-5.58-.49q-51,26-102.14,51.78a36.91,36.91,0,0,1-4.46,2c-5.25,1.81-10.52-.61-12.86-5.82a10.34,10.34,0,0,1,4.29-13c1-.57,2-1,3-1.55Z"/></svg>