<?xml version="1.0" encoding="utf-8"?>
<!-- Generator: Adobe Illustrator 21.1.0, SVG Export Plug-In . SVG Version: 6.00 Build 0)  -->
<svg version="1.1" id="Layer_1" xmlns="http://www.w3.org/2000/svg" xmlns:xlink="http://www.w3.org/1999/xlink" x="0px" y="0px"
	 width="600px" height="188.5px" viewBox="0 0 600 188.5" style="enable-background:new 0 0 600 188.5;" xml:space="preserve">
<path d="M78,61.7c-4.5-9.9-15-14.9-25.5-15c-11.9-0.1-22.1,6.3-29,15.7C8.3,83.1,8,114.7,17.8,137.7c10.4,24.4,33.9,39.8,60.4,40.4
	c25.7,0.6,49.3-14.1,62.4-35.9c16.2-27,13.3-61.8-4.1-87.5c-2.2-3.3-7.3-2.1-7.5,2c-1.4,37.8,3.9,75.7,15.6,111.7
	c1.1,3.4,7.1,4.2,7.7,0c2.2-15.9,4.2-32,7.4-47.7c1-4.8,3.4-13.8,10.1-10.5c6.3,3.1,6.3,13.1,7.2,19c1.1,7.9,2.1,15.9,3.7,23.8
	c1.4,6.8,2.9,16,8.9,20.4c4.2,3,8.2-3.9,4-6.9c-2.4-1.8-3.3-7.4-4-10.1c-1.3-5.2-2.2-10.5-3-15.8c-0.6-4.2-1.2-8.4-1.8-12.7
	c-0.9-6.8-1.4-14.2-5.6-19.8c-3.6-4.8-9.5-7.8-15.6-6.1c-5.6,1.6-8.8,6.9-10.4,12.1c-2.5,7.7-3.2,16.2-4.4,24.2
	c-1.5,9.3-2.9,18.7-4.2,28.1c2.6,0,5.1,0,7.7,0c-11.5-35.4-16.7-72.4-15.3-109.5c-2.5,0.7-5,1.3-7.5,2c13.5,20,18,45.8,9.4,68.7
	c-7.6,20.1-25.3,36.6-46.4,41.3c-21.5,4.8-45.6-2.8-59.3-20.3c-14.1-18-17-43.9-10.7-65.4c3.3-11.1,10.1-23.3,21.9-27.1
	c10-3.2,22.2-0.2,26.8,9.9C73.2,70.4,80.1,66.4,78,61.7L78,61.7z"/>
<g>
	<g>
		<path d="M199.9,116.6c-9.2,17.3-13.1,42.1,5.6,54.6c6.6,4.4,15.4,6.3,23,3.5c8.3-3.1,13.3-11.2,14.4-19.7
			c1.5-11.1-3.4-21.7-9.1-31c-4.8-7.8-12.4-15.7-22.4-12.9c-8.6,2.4-10.7,11.9-6.7,19c4.2,7.4,12.4,11.2,20.7,11.9
			c18.8,1.6,36.7-12.6,39.2-31.2c0.6-4.6-6.7-5.3-7.9-1.1c-3,10.3-3.4,21.1-1.2,31.5c1.9,9,5.8,19.8,13.6,25.3
			c7.3,5.2,16.5,3.2,21.9-3.7c6.9-8.7,4.7-19.9,2.3-29.8c-1.3-5.1-8.5-2.8-7.7,2.1c1.6,10,3.9,20.8,12.7,27
			c7.1,5.1,17.2,5.4,23.3-1.4c5.3-5.9,5.9-14.8,4.2-22.2c-2.4-10.7-10.4-19.1-12.3-30c-2.2,1.3-4.5,2.6-6.7,3.9
			c9.8,11.2,1.4,29.6,13.6,40.1c3.9,3.4,9.6,5.3,14.8,4c6.3-1.7,9.1-7.6,10.4-13.4c7-33.1,5.3-68.7-2.1-101.6
			c-1-4.3-8.2-3.5-7.9,1.1c1.5,19.1,2.9,38.2,4.4,57.3c0.8,9.9,1.5,19.7,2.3,29.6c0.6,7.7,0.5,16,3.4,23.2
			c4.6,11.3,21.3,18.5,28.5,5.3c3.5-6.5,4-15.2,4.4-22.5c0.5-9.2-0.2-18.3-1.9-27.4c-0.9-4.8-7.4-3.1-7.9,1.1
			c-1,10.6,0.8,21.3,5.3,30.9c3.7,7.8,10.2,17.6,20.2,15.9c8.9-1.5,13.7-10.8,13.9-19.1c0.2-10.1-7.3-24.4,1.8-32.4
			c-1.9,0-3.8,0-5.7,0c9.9,12.3,15.7,27.4,16.8,43.2c2.6-0.4,5.2-0.7,7.9-1.1c-1-6.9-1.1-13.9-0.4-20.8c0.4-3.9,1.1-7.7,2.1-11.5
			c0.5-2,1.2-6,3.4-7.1c4.2-2,8.2,12.2,9.3,14.8c2.8,6.9,5.6,13.7,8.4,20.6c1.5,3.7,8.5,3.8,7.9-1.1c-0.8-6.8-4-12.2-6.9-18.3
			c-1.9-4-4.4-13.2,1.1-15.9c3.4-1.7,6.4,2.1,7.6,4.9c1.6,3.7,1.5,8,2,12c0.6,5.7,2.1,10.9,5.9,15.3c13.9,16.3,42.7,10.9,45.6-11.5
			c1.5-11.1-3.7-23.1-14.1-28.1c-2.5-1.2-4.9-0.2-5.9,2.4c-7.6,20.4,2.6,45.6,22.7,54.4c20.1,8.8,45.5-0.8,55.3-20.2
			c2.3-4.6-4.6-8.6-6.9-4c-8.1,15.9-28.7,24.3-45.3,16.9c-16.7-7.4-24.3-28.2-18.1-44.9c-2,0.8-3.9,1.6-5.9,2.4
			c11.3,5.5,14.8,24,3.6,31.6c-4.9,3.4-11.4,3.4-16.9,1.5c-7.2-2.6-11.2-8.2-12.2-15.6c-1-8-0.9-16.3-7.5-22
			c-4.5-3.9-11.1-4.5-15.8-0.6c-4.8,3.9-6.1,10.8-5.3,16.7c1.2,8.4,7.8,14.8,8.8,23.2c2.6-0.4,5.2-0.7,7.9-1.1
			c-4.1-10.1-8.2-20.3-12.4-30.4c-2.5-6.1-7.4-13.3-15.1-10.8c-7.4,2.5-9.2,12.5-10.4,19.1c-1.8,10.1-1.8,20.2-0.3,30.3
			c0.6,4.4,8.2,3.4,7.9-1.1c-1.3-18-7.8-34.7-19.1-48.8c-1.4-1.8-4.2-1.3-5.7,0c-5.6,4.9-7.2,12.5-6.6,19.6
			c0.7,8.2,5.4,18.6,0.1,26.1c-6.7,9.4-14-2.5-16.9-8.6c-3.9-8.4-5.1-17.7-4.2-26.9c-2.6,0.4-5.2,0.7-7.9,1.1
			c1.3,7.4,1.9,14.9,1.7,22.4c-0.2,6.5-0.2,14.6-3.1,20.6c-3.1,6.5-10.5,3.6-13.5-1.4c-3.3-5.7-3.1-13.1-3.6-19.5
			c-2.3-29.9-4.6-59.9-6.9-89.8c-2.6,0.4-5.2,0.7-7.9,1.1c6.3,28.1,7.7,57.2,3.9,85.7c-0.6,4.8-0.6,16-5.3,18.9
			c-5.7,3.5-11.3-3.8-12.7-8.4c-3.6-11.4-0.7-23.4-9.2-33.1c-2.9-3.3-7.3,0.3-6.7,3.9c2.4,13.4,16.3,25.9,12.3,40.1
			c-2,7.1-9.1,9.1-15.1,4.9c-7.1-5-8.3-14.8-9.6-22.7c-2.6,0.7-5.1,1.4-7.7,2.1c1.8,7.1,4.2,15.9-0.6,22.4
			c-5.3,7.2-12.4,3.1-16.1-3.1c-7.6-12.6-8.4-28.7-4.4-42.6c-2.6-0.4-5.2-0.7-7.9-1.1c-1.5,10.8-10.7,19.3-20.8,22.2
			c-5.2,1.5-10.7,1.6-15.8-0.2c-4-1.4-14.4-10-7.1-13.7c6.9-3.5,12.7,6.3,15.4,11.1c3.8,6.6,7.4,14.1,7,21.9
			c-0.3,6.4-3.5,13.2-10,15.3c-5.1,1.7-10.8,0-15.1-2.8c-15.3-9.7-10.4-30.7-3.3-44C209.3,116.1,202.4,112,199.9,116.6L199.9,116.6z
			"/>
	</g>
</g>
<g>
	<g>
		<path d="M270.9,105.9c78.5-31.3,159.2-57.2,241.3-77.3c23.5-5.7,47-11,70.7-15.8c5-1,2.9-8.7-2.1-7.7
			c-82.8,16.9-164.5,39.4-244.2,67.6c-22.8,8.1-45.4,16.6-67.8,25.5C264,100.1,266.1,107.8,270.9,105.9L270.9,105.9z"/>
	</g>
</g>
<g>
	<g>
		<path d="M372.7,94.3c5.1,0,5.2-8,0-8C367.5,86.3,367.5,94.3,372.7,94.3L372.7,94.3z"/>
	</g>
</g>
</svg>
