<?xml version="1.0" encoding="utf-8"?>
<!-- Generator: Adobe Illustrator 21.1.0, SVG Export Plug-In . SVG Version: 6.00 Build 0)  -->
<svg version="1.1" id="Layer_1" xmlns="http://www.w3.org/2000/svg" xmlns:xlink="http://www.w3.org/1999/xlink" x="0px" y="0px"
	 width="176px" height="92.5px" viewBox="0 0 176 92.5" style="enable-background:new 0 0 176 92.5;" xml:space="preserve">
<style type="text/css">
	.st0{fill:none;stroke:#000000;stroke-linecap:round;stroke-miterlimit:10;}
</style>
<path class="st0" d="M88,4c-10,13-26,7-37,5S5-2,4,21"/>
<path class="st0" d="M55,9C39,23,29,42,27,84"/>
<path class="st0" d="M57,42c-9,15-17.1,34.1-10,42c9.3,10.3,30-35,28-38s-15,43-12,38c5-8,14.5-35.9,29-37c13-1-6,29-4,32
	c1.8,2.8,16.9-36.2,32-35c13,1-24.6,45-7,45c22,0,49.1-35,44-42c-5.5-7.5-23,0-26.5,21.5c-3.3,20.5,25.5,29.5,42-4"/>
<line class="st0" x1="66" y1="27" x2="65" y2="29"/>
</svg>
