<?xml version="1.0" encoding="iso-8859-1"?>
<!-- Generator: Adobe Illustrator 19.0.0, SVG Export Plug-In . SVG Version: 6.00 Build 0)  -->
<svg version="1.1" id="Capa_1" xmlns="http://www.w3.org/2000/svg" xmlns:xlink="http://www.w3.org/1999/xlink" x="0px" y="0px"
	 viewBox="0 0 468.297 468.297" style="enable-background:new 0 0 468.297 468.297;" xml:space="preserve">
<path style="fill:#D5D6DB;" d="M370.688,111.708c0,26.849-10.864,35.841-27.287,38.838c-10.052,1.81-17.295,11.114-17.295,21.916
	v45.018c0,32.905,2.685,65.748,9.178,97.904c1.81,9.053,3.184,19.169,4.059,30.096c0.313,4.058,0.562,8.242,0.687,12.488
	c0.125,2.06,0.125,4.12,0.187,6.244c0.063,1.998,0.063,4.058,0.063,6.119c0,0.063,0,0.063,0,0.125c0,4.245-0.063,8.429-0.249,12.488
	c-0.063,2.123-0.188,4.183-0.249,6.244c-0.188,2.123-0.313,4.183-0.5,6.244c-0.313,4.308-0.749,8.492-1.248,12.488
	c-0.25,2.123-0.5,4.245-0.813,6.244c-0.312,2.123-0.686,4.245-0.998,6.244c-0.749,4.37-1.623,8.553-2.623,12.488
	c-5.307,21.604-13.3,35.402-22.228,35.402c-8.929,0-16.921-13.799-22.229-35.402c-0.998-3.934-1.873-8.117-2.622-12.488
	c-0.375-1.998-0.688-4.121-0.999-6.244c-0.313-1.998-0.562-4.121-0.874-6.244c-0.5-3.996-0.874-8.18-1.186-12.488
	c-0.188-2.061-0.313-4.121-0.5-6.244c-0.063-2.061-0.188-4.121-0.25-6.244c-0.188-4.059-0.25-8.242-0.25-12.488
	c0-0.063,0-0.063,0-0.125c0-2.061,0-4.121,0.063-6.119c0-2.123,0.063-4.184,0.188-6.244c0.125-4.246,0.375-8.43,0.688-12.488
	c0.811-10.927,2.184-21.043,4.058-30.096c6.431-32.155,9.178-64.998,9.178-97.904v-45.018c0-10.803-7.305-20.106-17.296-21.916
	c-16.421-2.997-27.285-11.989-27.285-38.838c0-42.021,26.537-111.704,59.317-111.704C344.089,0.004,370.688,69.686,370.688,111.708z
	"/>
<path style="fill:#E1E6E9;" d="M281.285,125.962c-2.976,0-5.61-2.131-6.146-5.165c-9.409-53.54,19.11-90.78,20.329-92.338
	c2.116-2.716,6.03-3.204,8.768-1.076c2.713,2.122,3.195,6.04,1.079,8.756l0,0c-0.262,0.341-26.293,34.61-17.872,82.5
	c0.591,3.396-1.677,6.631-5.073,7.229C282.005,125.931,281.645,125.962,281.285,125.962z"/>
<path style="fill:#D5D6DB;" d="M181.367,7.449v101.925c0,3.457-2.803,6.26-6.26,6.26h0c-3.457,0-6.26-2.803-6.26-6.26V7.449
	c0-4.114-3.335-7.449-7.449-7.449h0c-4.114,0-7.449,3.335-7.449,7.449v101.925c0,3.457-2.803,6.26-6.26,6.26l0,0
	c-3.457,0-6.26-2.803-6.26-6.26V7.449c0-4.114-3.335-7.449-7.449-7.449h0c-4.114,0-7.449,3.335-7.449,7.449v101.925
	c0,3.457-2.803,6.26-6.26,6.26h0c-3.457,0-6.26-2.803-6.26-6.26V7.449c0-4.114-3.335-7.449-7.449-7.449h-1.504
	c-4.114,0-7.449,3.335-7.449,7.449l0.001,133.499c0,11.793,4.431,23.091,12.211,31.954c13.294,15.145,20.567,34.912,19.969,55.458
	l-5.21,216.26c-0.313,12.981,10.125,23.672,23.109,23.672h0c12.984,0,23.422-10.692,23.109-23.672l-5.209-216.26
	c-0.599-20.546,6.675-40.313,19.969-55.458c7.78-8.863,12.211-20.161,12.211-31.954l0.001-133.499c0-4.114-3.335-7.449-7.449-7.449
	h-1.504C184.702,0,181.367,3.335,181.367,7.449z"/>
<g>
	<path style="fill:#E1E6E9;" d="M340.03,395.431c-0.063,2.123-0.188,4.183-0.249,6.244c-0.188,2.123-0.313,4.183-0.5,6.244h-55.82
		c-0.188-2.061-0.313-4.121-0.5-6.244c-0.063-2.061-0.188-4.121-0.25-6.244H340.03z"/>
	<path style="fill:#E1E6E9;" d="M336.221,420.407c-0.749,4.37-1.623,8.553-2.623,12.488h-44.457
		c-0.998-3.934-1.873-8.117-2.622-12.488H336.221z"/>
	<path style="fill:#E1E6E9;" d="M340.279,382.818c0,0.063,0,0.063,0,0.125h-57.819c0-0.063,0-0.063,0-0.125
		c0-2.061,0-4.121,0.063-6.119c0-2.123,0.063-4.184,0.188-6.244h57.319c0.125,2.06,0.125,4.12,0.187,6.244
		C340.279,378.697,340.279,380.757,340.279,382.818z"/>
	<path style="fill:#E1E6E9;" d="M340.03,357.968h-57.319c0.125-4.246,0.375-8.43,0.688-12.488h55.945
		C339.656,349.538,339.905,353.721,340.03,357.968z"/>
</g>
<g>
</g>
<g>
</g>
<g>
</g>
<g>
</g>
<g>
</g>
<g>
</g>
<g>
</g>
<g>
</g>
<g>
</g>
<g>
</g>
<g>
</g>
<g>
</g>
<g>
</g>
<g>
</g>
<g>
</g>
</svg>
