<?xml version="1.0" encoding="iso-8859-1"?>
<!-- Generator: Adobe Illustrator 19.0.0, SVG Export Plug-In . SVG Version: 6.00 Build 0)  -->
<svg version="1.1" id="Capa_1" xmlns="http://www.w3.org/2000/svg" xmlns:xlink="http://www.w3.org/1999/xlink" x="0px" y="0px"
	 viewBox="0 0 468.293 468.293" style="enable-background:new 0 0 468.293 468.293;" xml:space="preserve">
<path style="fill:#64798A;" d="M57.317,134.299c-79.674,79.674-76.284,210.956,10.168,286.239
	c71.772,62.499,180.254,63.717,253.275,2.682c79.727-66.641,91.934-179.818,36.665-260.738c-5.633-8.247-4.288-19.365,3.484-25.639
	l94.78-76.506c15.671-12.65,16.918-36.094,2.677-50.335l0,0c-14.241-14.241-37.685-12.994-50.335,2.677l-76.514,94.79
	c-6.262,7.758-17.364,9.122-25.596,3.497C229.737,58.91,124.942,66.674,57.317,134.299z"/>
<ellipse transform="matrix(-0.7071 -0.7071 0.7071 -0.7071 698.4886 373.0493)" style="fill:#D5D6DB;" cx="426.505" cy="41.863" rx="13.375" ry="24.32"/>
<path style="fill:#E1E6E9;" d="M195.693,410.761c76.202,0,137.982-61.726,138.081-137.905l-276.162,0
	C57.711,349.035,119.491,410.761,195.693,410.761z"/>
<path style="fill:#D5D6DB;" d="M57.607,272.675c0,0.061,0.005,0.12,0.005,0.181l276.162,0c0-0.061,0.005-0.12,0.005-0.181
	c0-76.263-61.823-138.086-138.086-138.086C119.431,134.589,57.607,196.413,57.607,272.675z"/>
<g>
</g>
<g>
</g>
<g>
</g>
<g>
</g>
<g>
</g>
<g>
</g>
<g>
</g>
<g>
</g>
<g>
</g>
<g>
</g>
<g>
</g>
<g>
</g>
<g>
</g>
<g>
</g>
<g>
</g>
</svg>
