<?xml version="1.0" encoding="iso-8859-1"?>
<!-- Generator: Adobe Illustrator 19.0.0, SVG Export Plug-In . SVG Version: 6.00 Build 0)  -->
<svg version="1.1" id="Capa_1" xmlns="http://www.w3.org/2000/svg" xmlns:xlink="http://www.w3.org/1999/xlink" x="0px" y="0px"
	 viewBox="0 0 468.293 468.293" style="enable-background:new 0 0 468.293 468.293;" xml:space="preserve">
<path style="fill:#D15241;" d="M351.278,133.221c0,0-65.032-39.377-108.387,32.793c0,0-44.496,110.962-187.11,249.012
	c0,0-43.676,33.193-16.378,49.135c8.004,4.674,17.737,5.275,26.531,2.346c36.068-12.012,162.742-57.155,291.048-138.191
	c0,0,102.682-54.764,63.891-132.346L351.278,133.221z"/>
<g>
	<path style="fill:#E56353;" d="M286.645,202.031c0,0-7.814,52.992-101.693,132.944"/>
	<path style="fill:#E56353;" d="M184.435,345.279c-2.74-0.139-5.419-1.362-7.336-3.614c-3.695-4.338-3.174-10.848,1.166-14.543
		c88.8-75.63,98.106-126.189,98.189-126.691c0.928-5.584,6.246-9.413,11.784-8.543c5.591,0.878,9.439,6.049,8.614,11.648
		c-0.343,2.321-9.482,57.764-105.212,139.293C189.557,344.605,186.967,345.407,184.435,345.279z"/>
	<path style="fill:#E56353;" d="M423.501,201.694c17.266,68.305-70.306,115.075-70.306,115.075
		C224.89,397.804,98.215,442.948,62.148,454.959c-8.794,2.928-18.527,2.328-26.531-2.347c-2.072-1.21-3.69-2.528-4.994-3.915
		c-0.634,5.742,1.571,11.216,8.843,15.463c8.004,4.674,17.737,5.275,26.531,2.347c36.068-12.011,162.742-57.155,291.048-138.19
		C357.045,328.317,454.627,276.226,423.501,201.694z"/>
</g>
<path style="fill:#44C4A1;" d="M395.687,123.36c-11.66,19.916-45.911,8.657-62.152,1.864c-2.788-1.166-5.474,1.834-3.997,4.471
	l10.818,19.309c1.362,2.431,3.93,3.936,6.716,3.936h19.843c2.738,0,5.27,1.454,6.65,3.82l13.983,23.971
	c0.964,1.652,2.508,2.887,4.332,3.462l17.683,5.583c1.671,0.527,3.111,1.609,4.084,3.066l12.553,18.796
	c0.518,0.775,1.724,0.205,1.433-0.681c-5.533-16.834-19.971-66.079-9.073-92.266l-14.757-7.006L395.687,123.36z"/>
<path style="fill:#31978C;" d="M403.804,111.684c17.466-32.959,20.325-60.049,20.49-73.179c0.078-6.179-1.305-12.359-4.403-17.705
	c-3.263-5.63-6.616-8.055-9.069-9.087c-2.195-0.923-3.717-2.955-3.717-5.337V5.723c0-4.424,4.827-7.189,8.613-4.901
	c6.201,3.746,21.771,15.171,22.143,32.471c0,0,0.767,30.845-19.3,85.397"/>
<g>
</g>
<g>
</g>
<g>
</g>
<g>
</g>
<g>
</g>
<g>
</g>
<g>
</g>
<g>
</g>
<g>
</g>
<g>
</g>
<g>
</g>
<g>
</g>
<g>
</g>
<g>
</g>
<g>
</g>
</svg>
